<svg xmlns="http://www.w3.org/2000/svg" width="1em" height="1em" style="width:100%;height:100%;transform:translate3d(0,0,0);content-visibility:visible" viewBox="0 0 500 500"><defs><clipPath id="e"><path d="M0 0h500v500H0z"/></clipPath><clipPath id="p"><path d="M0 0h500v500H0z"/></clipPath><clipPath id="o"><path d="M0 0h500v500H0z"/></clipPath><clipPath id="l"><path d="M0 0h500v500H0z"/></clipPath><clipPath id="m"><path d="M0 0h500v500H0z"/></clipPath><clipPath id="i"><path d="M0 0h500v500H0z"/></clipPath><clipPath id="j"><path d="M0 0h500v500H0z"/></clipPath><clipPath id="f"><path d="M0 0h500v500H0z"/></clipPath><mask id="n" mask-type="alpha"><use xmlns:ns1="http://www.w3.org/1999/xlink" ns1:href="#a"/></mask><mask id="k" mask-type="alpha"><use xmlns:ns2="http://www.w3.org/1999/xlink" ns2:href="#b"/></mask><mask id="h" mask-type="alpha"><use xmlns:ns3="http://www.w3.org/1999/xlink" ns3:href="#c"/></mask><mask id="g" mask-type="alpha"><use xmlns:ns4="http://www.w3.org/1999/xlink" ns4:href="#d"/></mask><g id="a" class="primary design" style="display:block"><path fill="#121330" d="M500-376v500H0v-500h500z"/><path fill-opacity="0" stroke="#121330" stroke-width="0" d="M500-376v500H0v-500h500z"/></g><g id="b" class="primary design" style="display:block"><path fill="#121330" d="M500-376v500H0v-500h500z"/><path fill-opacity="0" stroke="#121330" stroke-width="0" d="M500-376v500H0v-500h500z"/></g><g id="c" class="primary design" style="display:block"><path fill="#121330" d="M500-376v500H0v-500h500z"/><path fill-opacity="0" stroke="#121330" stroke-width="0" d="M500-376v500H0v-500h500z"/></g><g id="d" class="primary design" style="display:block"><path fill="#121330" d="M500-376v500H0v-500h500z"/><path fill-opacity="0" stroke="#121330" stroke-width="0" d="M500-376v500H0v-500h500z"/></g></defs><g clip-path="url(#e)"><g clip-path="url(#f)" opacity="0" style="display:block"><path class="primary design" style="display:none"/><g fill="none" class="primary design" style="display:none"><path/><path/></g><path fill="#121330" d="M-7.48-4.5A41278.552 41278.552 0 0 0-6.14 7.58C-5.99 8.96-4.81 10-3.41 10h6.82c1.4 0 2.58-1.04 2.73-2.42l.625-5.635L7.48-4.5H-7.48zM1 0c0-.55.45-1 1-1s1 .45 1 1v6c0 .55-.45 1-1 1s-1-.45-1-1V0zm-4 0c0-.55.45-1 1-1s1 .45 1 1v6c0 .55-.45 1-1 1s-1-.45-1-1V0z" class="primary design" opacity="1" style="display:block" transform="translate(248.759 248.76) scale(20.83)"/><g class="primary design" mask="url(#g)" style="display:block"><path fill="#121330" d="m265.107 189.224-55.454 8.285-86.543-31.496 5.3-55.427 44.232-53.445 61.449-20.286 56.077 51.855 8.287 55.44-33.348 45.074z"/><path fill="#121330" d="m265.103 189.226-55.45 8.288-86.54-31.504 5.296-55.423 44.237-53.443 61.451-20.288 56.07 51.85 8.287 55.451-33.35 45.07z"/><path fill="none" stroke="#121330" stroke-linecap="round" stroke-linejoin="round" stroke-width="31.3" d="m265.103 189.226-55.45 8.288-86.54-31.504 5.296-55.423 44.237-53.443 61.451-20.288 56.07 51.85 8.287 55.451-33.35 45.07z"/></g><g class="primary design" mask="url(#h)" style="display:block"><path fill="#121330" d="m272.003 119 45.085-45.086 45.092 45.092-45.085 45.085L272.003 119z"/><path fill="none" stroke="#121330" stroke-linecap="round" stroke-linejoin="round" stroke-width="31.3" d="m272 119 45.09-45.09L362.182 119l-45.09 45.09-45.09-45.09z"/></g></g><g clip-path="url(#i)" opacity="0" style="display:block"><path fill="#121330" d="M-7.48-4.5A41278.552 41278.552 0 0 0-6.14 7.58C-5.99 8.96-4.81 10-3.41 10h6.82c1.4 0 2.58-1.04 2.73-2.42l.625-5.635L7.48-4.5H-7.48zM1 0c0-.55.45-1 1-1s1 .45 1 1v6c0 .55-.45 1-1 1s-1-.45-1-1V0zm-4 0c0-.55.45-1 1-1s1 .45 1 1v6c0 .55-.45 1-1 1s-1-.45-1-1V0z" class="primary design" opacity="1" style="display:block" transform="translate(248.759 248.76) scale(20.83)"/><g clip-path="url(#j)" mask="url(#k)" style="display:block"><g class="primary design" style="display:block"><path fill="#121330" d="m272.003 119 45.085-45.086 45.092 45.092-45.085 45.085L272.003 119z"/><path fill="none" stroke="#121330" stroke-linecap="round" stroke-linejoin="round" stroke-width="31.3" d="m272 119 45.09-45.09L362.182 119l-45.09 45.09-45.09-45.09z"/></g><g class="primary design" style="display:block"><path fill="#121330" d="m265.107 189.224-55.454 8.285-86.543-31.496 5.3-55.427 44.232-53.445 61.449-20.286 56.077 51.855 8.287 55.44-33.348 45.074z"/><path fill="#121330" d="m265.103 189.226-55.45 8.288-86.54-31.504 5.296-55.423 44.237-53.443 61.451-20.288 56.07 51.85 8.287 55.451-33.35 45.07z"/><path fill="none" stroke="#121330" stroke-linecap="round" stroke-linejoin="round" stroke-width="31.3" d="m265.103 189.226-55.45 8.288-86.54-31.504 5.296-55.423 44.237-53.443 61.451-20.288 56.07 51.85 8.287 55.451-33.35 45.07z"/></g><g class="primary design" style="display:none"><path/><path fill="none"/></g><g class="primary design" style="display:block"><path fill="#121330" d="m234.918-32.982-52.936-88.1 88.1-52.936 52.936 88.1-88.1 52.936z"/><path fill="none" stroke="#121330" stroke-linecap="round" stroke-linejoin="round" stroke-width="31.3" d="m234.917-32.978-52.939-88.105 88.105-52.939 52.939 88.105-88.105 52.939z"/></g></g></g><g clip-path="url(#l)" opacity="0" style="display:block"><g fill="none" class="primary design" style="display:none"><path/><path/></g><path fill="#121330" d="M8 0H1v-1a1 1 0 1 0-2 0v1h-7a1 1 0 1 0 0 2H8a1 1 0 1 0 0-2z" class="primary design" opacity="1" style="display:block" transform="translate(248.756 82.116) scale(20.83)"/><g clip-path="url(#m)" mask="url(#n)" style="display:none"><g class="primary design" style="display:none"><path/><path/><path fill="none"/></g><g class="primary design" style="display:none"><path/><path fill="none"/></g></g><path fill="#121330" d="M-7.48-4.5A41278.552 41278.552 0 0 0-6.14 7.58C-5.99 8.96-4.81 10-3.41 10h6.82c1.4 0 2.58-1.04 2.73-2.42l.625-5.635L7.48-4.5H-7.48zM1 0c0-.55.45-1 1-1s1 .45 1 1v6c0 .55-.45 1-1 1s-1-.45-1-1V0zm-4 0c0-.55.45-1 1-1s1 .45 1 1v6c0 .55-.45 1-1 1s-1-.45-1-1V0z" class="primary design" opacity="1" style="display:block" transform="translate(248.759 248.76) scale(20.83)"/></g><g clip-path="url(#o)" style="display:block"><g fill="none" class="primary design" style="display:none"><path/><path/></g><g fill="none" class="primary design" style="display:none"><path/><path/></g><g fill="none" class="primary design" style="display:none"><path/><path/></g><path fill="none" class="primary design" style="display:none"/><path fill="#121330" d="M6.72-4.5h-14.2l1.34 12.08C-5.99 8.96-4.81 10-3.41 10h6.82c1.4 0 2.58-1.04 2.73-2.42L7.48-4.5h-.76zM1 0c0-.55.45-1 1-1s1 .45 1 1v6c0 .55-.45 1-1 1s-1-.45-1-1V0zm-4 0c0-.55.45-1 1-1s1 .45 1 1v6c0 .55-.45 1-1 1s-1-.45-1-1V0z" class="primary design" style="display:block" transform="translate(248.759 248.76) scale(20.83)"/><path fill="#121330" d="M8 0H1v-1a1 1 0 1 0-2 0v1h-7a1 1 0 1 0 0 2H8a1 1 0 1 0 0-2z" class="primary design" style="display:block" transform="translate(248.756 82.116) scale(20.83)"/><path class="primary design" style="display:none"/><path class="primary design" style="display:none"/></g><g clip-path="url(#p)" opacity="0" style="display:block"><g fill="none" class="primary design" style="display:none"><path/><path/></g><path fill="none" class="primary design" style="display:none"/><path class="primary design" style="display:none"/><path class="primary design" style="display:none"/></g><g class="com" style="display:none"><path/><path/><path/><path/><path/><path/><path/><path/><path/><path/><path/><path/></g></g></svg>